<svg xmlns="http://www.w3.org/2000/svg" version="1.1"
  xmlns:xlink="http://www.w3.org/1999/xlink"
  xmlns:svgjs="http://svgjs.dev/svgjs" viewBox="0 0 1920 1080" class="overflow-hidden rounded-md drop-shadow-lg transition duration-300" style="overflow: hidden; height: 85vh;">
  <rect width="1920" height="1080" fill="#9254c8"></rect>
  <g clip-path="url(&quot;#SvgjsClipPath2030&quot;)">
    <g transform="matrix(0.8131727983645296,0.8131727983645295,-0.8131727983645295,0.8131727983645296,613.695311153454,-658.9883842919078)">
      <path d="M0,-1080C-1.2831502214349797,-990.8436731394274,0.5790648677645347,-727.247144639149,-7.698901328609878,-545.0620388365649C-15.976867524984291,-362.87693303398066,-59.41971115779332,-173.4637846069117,-49.667797178246474,13.11063481550488C-39.915883198699625,199.68505423792146,34.8049835285871,393.3387199931964,50.81258254867123,574.3844776979347C66.82018156875536,755.430235402673,58.56270006431725,927.5659109875799,46.377796942258286,1099.3851810439346C34.19289382019932,1271.2044511002894,-14.567203359972822,1428.5309615433855,-22.296836183682537,1605.300098036063C-30.02646900739225,1782.0692345287405,-3.7161393639470894,2067.550016339344,0,2160L 1920 2160 L 1920 -1080 Z" fill="url(&quot;#SvgjsLinearGradient2019&quot;)"></path>
      <path d="M174.54545454545456,-1080C175.8535509667718,-943.4592303643009,186.70818804624872,-528.7312264097807,182.39403307335792,-260.7553821858054C178.0798781004671,7.220462038169842,151.50777037393584,253.87573671053548,148.66052470810968,527.8550653438513C145.8132790422835,801.8343939771671,160.9964041055102,1111.0964338380643,165.310559078401,1383.120589614089C169.62471405129182,1655.144745390114,173.00630530094563,2030.5200982690149,174.54545454545456,2160L 1920 2160 L 1920 -1080 Z" fill="url(&quot;#SvgjsLinearGradient2020&quot;)"></path>
      <path d="M349.0909090909091,-1080C349.47215618890857,-969.4124173729622,353.66039276679095,-634.8771136388891,351.37839167890564,-416.47450423777315C349.09639059102034,-198.07189483665712,333.8670841040346,12.780532929560621,335.3989025635972,230.4156564066961C336.9307210231598,448.0507798838315,352.0065061210445,672.2753918344603,360.5693024362811,889.3362366250395C369.1320987515177,1106.3970814156187,388.68874601257875,1321.003431254345,386.77568045501675,1532.7807251501717C384.86261489745476,1744.5580190459984,355.3717043182604,2055.4634541916953,349.0909090909091,2160L 1920 2160 L 1920 -1080 Z" fill="url(&quot;#SvgjsLinearGradient2021&quot;)"></path>
      <path d="M523.6363636363636,-1080C520.937228133458,-1018.7121483182802,517.6451551271916,-839.1559822550929,507.44155061893014,-712.2728899096811C497.23794611066864,-585.3897975642693,459.42010129623856,-462.70316052071735,462.41473658679485,-318.7014459275291C465.40937187735113,-174.6997313343409,517.952644414241,1.2433197814239065,525.4093623622679,151.73739764944816C532.8660803102947,302.2314755174724,513.8852339417199,448.0226788601236,507.15504427495597,584.2630212806164C500.42485460819205,720.5033637011092,491.4903656000671,842.7412494435314,485.02822436168424,969.1794521724049C478.5660831233014,1095.6176549012785,470.6692792991497,1207.1633653665713,468.3821968446588,1342.8922376538576C466.09511439016785,1478.621109941144,462.0967018361211,1647.368058838433,471.30572963473855,1783.5526858961234C480.514757433356,1919.737312953814,514.9145913027594,2097.2587809826873,523.6363636363636,2160L 1920 2160 L 1920 -1080 Z" fill="url(&quot;#SvgjsLinearGradient2022&quot;)"></path>
      <path d="M698.1818181818182,-1080C695.0926864337116,-974.2041702871596,672.726522373177,-668.7999032712768,679.6470276931782,-445.2250217229575C686.5675330131794,-221.6501401746382,730.0121004754026,52.53757632109571,739.7048501018254,261.4492892899156C749.3975997282482,470.36100225873554,747.6017246952216,599.0082544243634,737.803525451715,808.245256089962C728.0053262082084,1017.4822577555607,687.5192725191021,1291.5788419651676,680.915654640786,1516.8712992835074C674.3120367624699,1742.1637566018471,695.3041242583129,2052.811883213918,698.1818181818182,2160L 1920 2160 L 1920 -1080 Z" fill="url(&quot;#SvgjsLinearGradient2023&quot;)"></path>
      <path d="M872.7272727272727,-1080C881.0998907594131,-967.5259611476927,926.9003732682098,-613.9248798138036,922.9629809201149,-405.15576688615596C919.02558857202,-196.38665395850828,861.8295634627328,-28.680156803643655,849.1029186387034,172.61467756588613C836.3762738146739,373.90951193541594,837.666579946199,580.49871675159,846.6031119759383,802.6132393310228C855.5396440056776,1024.7277619104557,898.3680840252503,1279.0706862643199,902.7221108171393,1505.3018130424828C907.0761376090284,1731.5329398206457,877.7264124089172,2050.8836355070803,872.7272727272727,2160L 1920 2160 L 1920 -1080 Z" fill="url(&quot;#SvgjsLinearGradient2024&quot;)"></path>
      <path d="M1047.2727272727273,-1080C1045.7870767905647,-1013.0272935378673,1041.6584536989078,-826.2402931902427,1038.358824379752,-678.1637612272042C1035.059195060596,-530.0872292641657,1033.5507074547595,-346.1050509299663,1027.474951357792,-191.54080822176877C1021.3991952608244,-36.976565513571245,1003.568421773908,94.68370348396374,1001.9042877979468,249.22169502198096C1000.2401538219857,403.75968655999816,1009.7748948761395,581.9425389571353,1017.4901475020249,735.6871410063345C1025.2054001279103,889.4317430555337,1039.379535060691,1013.1378320481273,1048.1958035532596,1171.6893073171764C1057.012072045828,1330.2407825862256,1070.5416045041918,1522.2775438401584,1070.3877584574363,1686.995992620629C1070.233912410681,1851.7144414010997,1051.1252324701788,2081.165998770105,1047.2727272727273,2160L 1920 2160 L 1920 -1080 Z" fill="url(&quot;#SvgjsLinearGradient2025&quot;)"></path>
      <path d="M1221.8181818181818,-1080C1221.767238979615,-991.8946207512856,1212.3606531829362,-735.6626046830521,1221.5125247867813,-551.3677245077141C1230.6643963906265,-367.0728443323761,1286.8401488408063,-157.74430567678087,1276.7294114412523,25.769281052027893C1266.6186740416983,209.28286778083663,1178.972000974594,381.8300692600703,1160.8481003894583,549.7137958651383C1142.7241998043226,717.5975224702063,1163.2201803767127,847.7919988559321,1167.9860079304374,1033.071640682436C1172.751835484162,1218.35128250894,1180.4710367305152,1473.5702536045678,1189.443065711806,1661.3916468241619C1198.4150946930968,1849.2130400437559,1216.4223291337858,2076.898607804027,1221.8181818181818,2160L 1920 2160 L 1920 -1080 Z" fill="url(&quot;#SvgjsLinearGradient2026&quot;)"></path>
      <path d="M1396.3636363636365,-1080C1393.9770720885865,-975.1207786562862,1379.137729928796,-665.6811530737061,1382.0442507133364,-450.72467193771735C1384.9507714978768,-235.76819080172854,1411.7942378185776,-10.98474964097332,1413.802761070879,209.7388868159327C1415.8112843231802,430.46252327283867,1396.8792961917197,664.1422769881833,1394.0953902271442,873.6171468037188C1391.3114842625687,1083.0920166192543,1396.7212842606766,1252.1909635097652,1397.0993252834253,1466.5881057091453C1397.477366306174,1680.9852479085255,1396.4862511836013,2044.431350951524,1396.3636363636365,2160L 1920 2160 L 1920 -1080 Z" fill="url(&quot;#SvgjsLinearGradient2027&quot;)"></path>
      <path d="M1570.909090909091,-1080C1569.3199303657534,-999.4430742432901,1566.0114338364483,-770.6870182846808,1561.3741276490648,-596.6584454597403C1556.7368214616813,-422.62987263479977,1542.0909599065578,-229.7190162254142,1543.0852537847895,-35.82856305035666C1544.0795476630212,158.0618901247009,1560.340983646903,385.6122047974618,1567.3398909184552,566.6842735906051C1574.3387981900075,747.7563423837485,1592.5670486988367,885.5349456882486,1585.078697414103,1050.6038497085033C1577.5903461293694,1215.672753728758,1524.7713842942221,1372.1983393302169,1522.4097832100533,1557.097697712133C1520.0481821258845,1741.997056094049,1562.8258729592515,2059.5162829520223,1570.909090909091,2160L 1920 2160 L 1920 -1080 Z" fill="url(&quot;#SvgjsLinearGradient2028&quot;)"></path>
      <path d="M1745.4545454545455,-1080C1737.5367670773014,-1003.6076465026093,1707.423341767288,-779.6593488351047,1697.947875191081,-621.6458790156557C1688.472408614874,-463.6324091962068,1690.0293550352944,-281.9136060891969,1688.6017459973027,-131.91918108330668C1687.174136959311,18.075243922583525,1671.3403450932358,133.98529973123382,1689.3822209631307,278.32067101968556C1707.4240968330257,422.65604230813733,1789.5195630598494,581.7143997417922,1796.8530012166725,734.0930466474039C1804.1864393734957,886.4716935530155,1750.0631098322553,1035.6891161280785,1733.38284990407,1192.5925524533552C1716.7025899758848,1349.495988778632,1694.759492389148,1514.2790900079572,1696.7714416475606,1675.5136645990647C1698.7833909059732,1836.7482391901722,1737.340694820048,2079.2522774331774,1745.4545454545455,2160L 1920 2160 L 1920 -1080 Z" fill="url(&quot;#SvgjsLinearGradient2029&quot;)"></path>
    </g>
  </g>
  <defs>
    <linearGradient x1="0.1" y1="0" x2="0" y2="1" id="SvgjsLinearGradient2019">
      <stop stop-color="#9254c8" offset="0"></stop>
      <stop stop-color="#7f54c8" offset="0"></stop>
    </linearGradient>
    <linearGradient x1="0.1" y1="0" x2="0" y2="1" id="SvgjsLinearGradient2020">
      <stop stop-color="#8844c3" offset="0"></stop>
      <stop stop-color="#7344c3" offset="0.09090909090909091"></stop>
    </linearGradient>
    <linearGradient x1="0.1" y1="0" x2="0" y2="1" id="SvgjsLinearGradient2021">
      <stop stop-color="#7d3bb7" offset="0"></stop>
      <stop stop-color="#683bb7" offset="0.18181818181818182"></stop>
    </linearGradient>
    <linearGradient x1="0.1" y1="0" x2="0" y2="1" id="SvgjsLinearGradient2022">
      <stop stop-color="#7236a7" offset="0"></stop>
      <stop stop-color="#5f36a7" offset="0.2727272727272727"></stop>
    </linearGradient>
    <linearGradient x1="0.1" y1="0" x2="0" y2="1" id="SvgjsLinearGradient2023">
      <stop stop-color="#673197" offset="0"></stop>
      <stop stop-color="#563197" offset="0.36363636363636365"></stop>
    </linearGradient>
    <linearGradient x1="0.1" y1="0" x2="0" y2="1" id="SvgjsLinearGradient2024">
      <stop stop-color="#5d2c87" offset="0"></stop>
      <stop stop-color="#4e2c87" offset="0.45454545454545453"></stop>
    </linearGradient>
    <linearGradient x1="0.1" y1="0" x2="0" y2="1" id="SvgjsLinearGradient2025">
      <stop stop-color="#522677" offset="0"></stop>
      <stop stop-color="#442677" offset="0.5454545454545454"></stop>
    </linearGradient>
    <linearGradient x1="0.1" y1="0" x2="0" y2="1" id="SvgjsLinearGradient2026">
      <stop stop-color="#472167" offset="0"></stop>
      <stop stop-color="#3b2167" offset="0.6363636363636364"></stop>
    </linearGradient>
    <linearGradient x1="0.1" y1="0" x2="0" y2="1" id="SvgjsLinearGradient2027">
      <stop stop-color="#3c1c57" offset="0"></stop>
      <stop stop-color="#321c57" offset="0.7272727272727273"></stop>
    </linearGradient>
    <linearGradient x1="0.1" y1="0" x2="0" y2="1" id="SvgjsLinearGradient2028">
      <stop stop-color="#311748" offset="0"></stop>
      <stop stop-color="#291748" offset="0.8181818181818182"></stop>
    </linearGradient>
    <linearGradient x1="0.1" y1="0" x2="0" y2="1" id="SvgjsLinearGradient2029">
      <stop stop-color="#261238" offset="0"></stop>
      <stop stop-color="#201238" offset="0.9090909090909091"></stop>
    </linearGradient>
    <clipPath id="SvgjsClipPath2030">
      <rect width="1920" height="1080"></rect>
    </clipPath>
  </defs>
</svg>