<svg xmlns="http://www.w3.org/2000/svg" version="1.1" xmlns:xlink="http://www.w3.org/1999/xlink" xmlns:svgjs="http://svgjs.dev/svgjs" viewBox="0 0 1920 1080" class="overflow-hidden rounded-md drop-shadow-lg transition duration-300" style="overflow: hidden; height: 85vh;"><rect width="1920" height="1080" fill="#6246ea"/><g clip-path="url(&quot;#SvgjsClipPath2892&quot;)"><g transform="matrix(0.3933231648245191,1.0806465139037944,-1.0806465139037944,0.3933231648245191,1157.6547482519018,-695.0233824093677)"><path d="M0,-1080C10.308058186911628,-997.3467028339035,65.96744555363635,-772.0934422550787,61.84834912146977,-584.0802170034209C57.72925268930318,-396.0669917517631,-14.334055981053508,-128.9552510032298,-24.71457859299951,48.079351509947C-35.09510120494551,225.1139540231238,-12.589214006107147,305.0874445366467,-0.43478655020624046,478.1273980756398C11.719640905694666,651.1673516146329,41.15546371716002,885.1100982141952,48.211986142405934,1086.3190727439057C55.26850856765185,1287.5280472736163,49.93967902500358,1506.434424044554,41.904348001269256,1685.381245253903C33.86901697753493,1864.328066463252,6.984058000211543,2080.8968742089837,0,2160L 1920 2160 L 1920 -1080 Z" fill="url(&quot;#SvgjsLinearGradient2883&quot;)"/><path d="M213.33333333333331,-1080C223.05843595820562,-1007.9060750796336,260.6900165547361,-777.660137233868,271.6839490825672,-647.4364504778016C282.67788161039834,-517.2127637217352,288.01976518210245,-424.5357879944412,279.29692850032006,-298.6578794636016C270.5740918185377,-172.779970932762,233.32363701531278,-33.128456567366726,219.3469289918728,107.83100070723606C205.37022096843282,248.79045798183884,204.1955886922909,412.50192122332,195.43668035968008,547.098864184015C186.67777202706927,681.6958071447101,153.7372229436717,777.2986322447467,166.7934789962079,915.4126584714064C179.84973504874412,1053.5266846980662,269.0370588207214,1230.5496487000835,273.7742166748974,1375.7830215439733C278.51137452907335,1521.016394387863,205.28990667819093,1656.1100657920736,195.2164261212636,1786.8128955347447C185.14294556433626,1917.5157252774159,210.31384879798836,2097.802149255791,213.33333333333331,2160L 1920 2160 L 1920 -1080 Z" fill="url(&quot;#SvgjsLinearGradient2884&quot;)"/><path d="M426.66666666666663,-1080C425.4064236407336,-1014.3018722136826,428.5222447189645,-815.3117799349081,419.10520851106816,-685.8112332820956C409.6881723031718,-556.310686629283,370.59550888981573,-446.2015855354897,370.16444941928876,-302.9967200831249C369.7333899487618,-159.79185463076007,409.4263348251169,29.797922871110273,416.5188516879065,173.41795943209326C423.61136855069606,317.03799599307627,414.34506786871754,440.72837099477255,412.71955059602607,558.7234992827731C411.0940333233346,676.7186275707736,409.8152142890215,743.6468031052972,406.76574805175756,881.3887291600964C403.7162818144936,1019.1306552148957,394.5427058505084,1231.6213171175575,394.42275317244224,1385.1750556115685C394.3028004943761,1538.7287941055795,400.6720464009899,1673.5736693927574,406.04603198336065,1802.7111601241627C411.42001756573137,1931.848650855568,423.22989421944897,2100.451860020694,426.66666666666663,2160L 1920 2160 L 1920 -1080 Z" fill="url(&quot;#SvgjsLinearGradient2885&quot;)"/><path d="M640,-1080C641.9540298875472,-975.3664831216718,649.2395022376542,-676.1909112476235,651.7241793252836,-452.1988987300306C654.208856412913,-228.20688621243767,662.0794171114496,41.73564561081392,654.9080625257761,263.95207510555747C647.7367079401026,486.16850460030105,622.4003807300799,664.1879132129175,608.6960518112425,881.0996782384307C594.991722892405,1098.0114432639439,567.4647643146254,1352.2726116317085,572.6820890127517,1565.4226652586367C577.899413710878,1778.5727188855649,628.780348168792,2060.903777543106,640,2160L 1920 2160 L 1920 -1080 Z" fill="url(&quot;#SvgjsLinearGradient2886&quot;)"/><path d="M853.3333333333333,-1080C853.9921409654548,-971.7417237017971,850.8850262502194,-640.7109395679056,857.286179126063,-430.4503422107831C863.6873320019065,-220.1897448536606,887.3318492622542,-38.45006208326069,891.7402505883948,181.56358414273498C896.1486519145354,401.5772303687306,891.4024621446514,666.9479016296214,883.7365870829067,889.631535145191C876.070712021162,1112.3151686607607,850.8122091761886,1305.9373077603516,845.7450002179264,1517.665385236153C840.6777912596642,1729.3934627119545,852.0686111474321,2052.944230872692,853.3333333333333,2160L 1920 2160 L 1920 -1080 Z" fill="url(&quot;#SvgjsLinearGradient2887&quot;)"/><path d="M1066.6666666666667,-1080C1067.353719872929,-988.3591970412847,1075.5338054948547,-703.6784245336698,1070.7889859042411,-530.1551822477081C1066.0441663136276,-356.6319399617464,1036.7011756540962,-216.4178889793708,1038.197749122986,-38.860546284229954C1039.6943225918756,138.69679641091085,1081.5232881640557,339.0265590837166,1079.7684267175791,535.1888739231366C1078.0135652711026,731.3511887625566,1019.3436040213682,954.5154099167302,1027.668580444127,1138.1133427522898C1035.9935568668857,1321.7112755878493,1123.2186042170422,1466.4620280618758,1129.718285254132,1636.7764709364942C1136.217966291222,1807.0909138111126,1077.1752697645777,2072.796078489416,1066.6666666666667,2160L 1920 2160 L 1920 -1080 Z" fill="url(&quot;#SvgjsLinearGradient2888&quot;)"/><path d="M1280,-1080C1283.1223147809264,-991.9158605922014,1295.9855227633002,-704.0219607582977,1298.7338886855591,-551.4951635532083C1301.482254607818,-398.9683663481188,1300.792173718148,-298.42735867439393,1296.490195533553,-164.83921676946315C1292.1882173489582,-31.25107486453237,1272.7902933548437,99.72886960644658,1272.9220195779903,250.0336878763763C1273.053745801137,400.33850614630603,1290.8406472543666,581.7455016807243,1297.280552872433,736.989692850115C1303.7204584904994,892.2338840195058,1305.8837904792006,1023.4686116303037,1311.5614532863895,1181.498834892721C1317.2391160935783,1339.5290581551385,1336.606771929964,1522.0875049067395,1331.3465297155658,1685.1710324246194C1326.0862875011676,1848.2545599424993,1288.5577549525942,2080.8618387374368,1280,2160L 1920 2160 L 1920 -1080 Z" fill="url(&quot;#SvgjsLinearGradient2889&quot;)"/><path d="M1493.3333333333333,-1080C1502.3443580451024,-981.6423282219458,1549.303021199927,-680.1269109701029,1547.3994816039476,-489.8539693316747C1545.4959420079683,-299.58102769324654,1493.120633480712,-106.18927719724786,1481.912095757458,61.637649830568876C1470.703558034204,229.4645768583856,1476.8094731923986,350.932337779868,1480.1482552644236,517.1075928352258C1483.4870373364486,683.2828478905835,1503.5570593085238,864.2838790731441,1501.944788189608,1058.6891801627155C1500.3325170706923,1253.0944812522869,1471.9098710269745,1499.98759606644,1470.4746285509289,1683.5393993726539C1469.0393860748832,1867.0912026788678,1489.5235492029326,2080.589899895442,1493.3333333333333,2160L 1920 2160 L 1920 -1080 Z" fill="url(&quot;#SvgjsLinearGradient2890&quot;)"/><path d="M1706.6666666666665,-1080C1696.7182015206083,-976.6107613116563,1650.7584865034883,-667.9071749290968,1646.9758757903176,-459.66456786993825C1643.1932650771469,-251.4219608107797,1679.8422191284772,-55.42630769753748,1683.971002387643,169.45564235495132C1688.0997856468089,394.3375924074401,1657.6284994810949,658.9314549153527,1671.7485753453125,889.6271324449946C1685.86865120953,1120.3228099746364,1762.8717756860556,1341.900896273635,1768.691457572948,1553.6297075328025C1774.5111394598403,1765.35851879197,1717.0041318177134,2058.9382845888003,1706.6666666666665,2160L 1920 2160 L 1920 -1080 Z" fill="url(&quot;#SvgjsLinearGradient2891&quot;)"/></g></g><defs><linearGradient x1="0.1" y1="0" x2="0" y2="1" id="SvgjsLinearGradient2883"><stop stop-color="#6246ea" offset="0"/><stop stop-color="#4746ea" offset="0"/></linearGradient><linearGradient x1="0.1" y1="0" x2="0" y2="1" id="SvgjsLinearGradient2884"><stop stop-color="#5233e8" offset="0"/><stop stop-color="#3433e8" offset="0.1111111111111111"/></linearGradient><linearGradient x1="0.1" y1="0" x2="0" y2="1" id="SvgjsLinearGradient2885"><stop stop-color="#411fe6" offset="0"/><stop stop-color="#201fe6" offset="0.2222222222222222"/></linearGradient><linearGradient x1="0.1" y1="0" x2="0" y2="1" id="SvgjsLinearGradient2886"><stop stop-color="#3918d7" offset="0"/><stop stop-color="#1918d7" offset="0.3333333333333333"/></linearGradient><linearGradient x1="0.1" y1="0" x2="0" y2="1" id="SvgjsLinearGradient2887"><stop stop-color="#3416c3" offset="0"/><stop stop-color="#1716c3" offset="0.4444444444444444"/></linearGradient><linearGradient x1="0.1" y1="0" x2="0" y2="1" id="SvgjsLinearGradient2888"><stop stop-color="#2f14b0" offset="0"/><stop stop-color="#1514b0" offset="0.5555555555555556"/></linearGradient><linearGradient x1="0.1" y1="0" x2="0" y2="1" id="SvgjsLinearGradient2889"><stop stop-color="#2a129d" offset="0"/><stop stop-color="#13129d" offset="0.6666666666666666"/></linearGradient><linearGradient x1="0.1" y1="0" x2="0" y2="1" id="SvgjsLinearGradient2890"><stop stop-color="#241089" offset="0"/><stop stop-color="#101089" offset="0.7777777777777778"/></linearGradient><linearGradient x1="0.1" y1="0" x2="0" y2="1" id="SvgjsLinearGradient2891"><stop stop-color="#1f0d76" offset="0"/><stop stop-color="#0d0d76" offset="0.8888888888888888"/></linearGradient><clipPath id="SvgjsClipPath2892"><rect width="1920" height="1080"/></clipPath></defs></svg>